<svg width="61" height="61" viewBox="0 0 61 61" fill="none" xmlns="http://www.w3.org/2000/svg">
<path d="M7.02733 7.7183C5.75051 9.21417 4.73768 10.99 4.04667 12.9445C3.35566 14.8989 3 16.9937 3 19.1092C3 21.2247 3.35566 23.3194 4.04667 25.2739C4.73768 27.2283 5.75051 29.0042 7.02733 30.5001L30.5 58L53.9727 30.5001C56.5513 27.479 58 23.3816 58 19.1092C58 14.8368 56.5513 10.7394 53.9727 7.7183C51.3941 4.69725 47.8967 3.00004 44.25 3.00004C40.6032 3.00004 37.1059 4.69725 34.5272 7.7183L30.5 12.4365L26.4728 7.7183C25.196 6.22242 23.6802 5.03581 22.012 4.22625C20.3438 3.41668 18.5558 3 16.7501 3C14.9444 3 13.1564 3.41668 11.4882 4.22625C9.81992 5.03581 8.30413 6.22242 7.02733 7.7183Z" stroke="#FF4E4E" stroke-width="6" stroke-linecap="round" stroke-linejoin="round"/>
</svg>
