<svg width="34" height="37" viewBox="0 0 34 37" fill="none" xmlns="http://www.w3.org/2000/svg">
<path d="M31 8.77778L29.266 32.3872C29.1942 33.3684 28.7426 34.2866 28.0022 34.9569C27.2619 35.6273 26.2877 36 25.276 36H8.724C7.71228 36 6.73813 35.6273 5.99777 34.9569C5.25741 34.2866 4.80583 33.3684 4.734 32.3872L3 8.77778M13 16.5556V28.2222M21 16.5556V28.2222M23 8.77778V2.94444C23 2.42875 22.7893 1.93417 22.4142 1.56951C22.0391 1.20486 21.5304 1 21 1H13C12.4696 1 11.9609 1.20486 11.5858 1.56951C11.2107 1.93417 11 2.42875 11 2.94444V8.77778M1 8.77778H33" stroke="#9CA3AF" stroke-width="2" stroke-linecap="round" stroke-linejoin="round"/>
</svg>
